<svg width="48" height="48" viewBox="0 0 48 48" fill="none" xmlns="http://www.w3.org/2000/svg">
<path d="M10.5 19.5V15C10.5 7.53 12.75 1.5 24 1.5C35.25 1.5 37.5 7.53 37.5 15V19.5M26.6998 33.0008C26.6998 34.492 25.4911 35.7008 23.9999 35.7008C22.5088 35.7008 21.3 34.492 21.3 33.0008C21.3 31.5096 22.5088 30.3008 23.9999 30.3008C25.4911 30.3008 26.6998 31.5096 26.6998 33.0008ZM35.25 46.5H12.75C3.75 46.5 1.5 44.25 1.5 35.25V30.75C1.5 21.75 3.75 19.5 12.75 19.5H35.25C44.25 19.5 46.5 21.75 46.5 30.75V35.25C46.5 44.25 44.25 46.5 35.25 46.5Z" stroke="white" stroke-width="2.875" stroke-linecap="round" stroke-linejoin="round"/>
</svg>
