<svg width="40" height="40" viewBox="0 0 40 40" fill="none" xmlns="http://www.w3.org/2000/svg">
<path d="M0 11C0 4.92487 4.92487 0 11 0H29C35.0751 0 40 4.92487 40 11V29C40 35.0751 35.0751 40 29 40H11C4.92487 40 0 35.0751 0 29V11Z" fill="#FFB4DF"/>
<path d="M16.9002 15.5505C17.2102 11.9505 19.0602 10.4805 23.1102 10.4805H23.2402C27.7102 10.4805 29.5002 12.2705 29.5002 16.7405V23.2605C29.5002 27.7305 27.7102 29.5205 23.2402 29.5205H23.1102C19.0902 29.5205 17.2402 28.0705 16.9102 24.5305" stroke="white" stroke-width="1.5" stroke-linecap="round" stroke-linejoin="round"/>
<path d="M22.9999 19.9902H11.6199" stroke="white" stroke-width="1.5" stroke-linecap="round" stroke-linejoin="round"/>
<path d="M13.8498 16.6406L10.4998 19.9906L13.8498 23.3406" stroke="white" stroke-width="1.5" stroke-linecap="round" stroke-linejoin="round"/>
</svg>
