<svg width="41" height="41" viewBox="0 0 41 41" fill="none" xmlns="http://www.w3.org/2000/svg">
<rect x="0.5" y="0.5" width="40" height="40" rx="11" fill="#FFB4DF"/>
<path d="M25.5 21.9V24.9C25.5 28.9 23.9 30.5 19.9 30.5H16.1C12.1 30.5 10.5 28.9 10.5 24.9V21.1C10.5 17.1 12.1 15.5 16.1 15.5H19.1" stroke="#FC68B9" stroke-width="1.5" stroke-linecap="round" stroke-linejoin="round"/>
<path d="M25.5001 21.9H22.3001C19.9001 21.9 19.1001 21.1 19.1001 18.7V15.5L25.5001 21.9Z" stroke="#FC68B9" stroke-width="1.5" stroke-linecap="round" stroke-linejoin="round"/>
<path d="M20.1001 10.5H24.1001" stroke="#FC68B9" stroke-width="1.5" stroke-linecap="round" stroke-linejoin="round"/>
<path d="M15.5 13.5C15.5 11.84 16.84 10.5 18.5 10.5H21.12" stroke="#FC68B9" stroke-width="1.5" stroke-linecap="round" stroke-linejoin="round"/>
<path d="M30.4999 16.5V22.69C30.4999 24.24 29.2399 25.5 27.6899 25.5" stroke="#FC68B9" stroke-width="1.5" stroke-linecap="round" stroke-linejoin="round"/>
<path d="M30.5 16.5H27.5C25.25 16.5 24.5 15.75 24.5 13.5V10.5L30.5 16.5Z" stroke="#FC68B9" stroke-width="1.5" stroke-linecap="round" stroke-linejoin="round"/>
</svg>
