<svg width="40" height="40" viewBox="0 0 40 40" fill="none" xmlns="http://www.w3.org/2000/svg">
<rect width="40" height="40" rx="20" fill="white"/>
<path d="M10 23.2856V13.7056C10 12.3756 10.77 12.0556 11.71 12.9956L14.3 15.5856C14.69 15.9756 15.33 15.9756 15.71 15.5856L19.29 11.9956C19.68 11.6056 20.32 11.6056 20.7 11.9956L24.29 15.5856C24.68 15.9756 25.32 15.9756 25.7 15.5856L28.29 12.9956C29.23 12.0556 30 12.3756 30 13.7056V23.2956C30 26.2956 28 28.2956 25 28.2956H15C12.24 28.2856 10 26.0456 10 23.2856Z" fill="#FFE251"/>
</svg>
