<svg width="21" height="24" viewBox="0 0 21 24" fill="none" xmlns="http://www.w3.org/2000/svg">
<path d="M15.9893 0C18.4911 8.88604e-05 20.5234 2.04405 20.5352 4.53418V21.084C20.5352 23.21 19.0199 24.1028 17.1641 23.0693L11.4316 19.8867C10.8326 19.5461 9.84615 19.5461 9.23535 19.8867L3.50293 23.0693C1.64704 24.0913 0.131836 23.1983 0.131836 21.084V4.53418C0.131836 2.04399 2.16408 0 4.66602 0H15.9893ZM7.3916 9.22168C6.8726 9.22168 6.4514 9.64218 6.45117 10.1611C6.45117 10.6803 6.87246 11.1016 7.3916 11.1016H13.2646C13.7838 11.1015 14.2041 10.6803 14.2041 10.1611C14.2039 9.6422 13.7836 9.22171 13.2646 9.22168H7.3916Z" fill="#FC68B9"/>
</svg>
