<svg xmlns="http://www.w3.org/2000/svg" viewBox="0 0 75 33" width="100%" fill="#596203ff"><path d="M19.4022 3.72979C19.4948 4.62863 19.3915 5.32636 19.0925 5.82295C18.7935 6.31954 18.3966 6.70934 17.9018 6.99234C17.4069 7.27535 16.8587 7.50139 16.2589 7.66692C15.6591 7.83246 15.1109 8.04604 14.6125 8.30591C14.1159 8.56577 13.7154 8.93421 13.4146 9.40589C13.1138 9.87934 13.007 10.5432 13.0942 11.394C13.1476 11.9244 13.3096 12.3036 13.5766 12.5332C13.8454 12.7628 14.1551 12.8998 14.5093 12.9443C14.8635 12.9906 15.255 13.0031 15.684 12.9817C16.113 12.9621 16.5045 12.9746 16.8587 13.0191C17.2129 13.0654 17.5226 13.19 17.7878 13.3964C18.053 13.6029 18.2132 13.9696 18.2666 14.5C18.3592 15.3988 18.1598 16.1873 17.6704 16.8672C17.1809 17.5454 16.5579 17.7963 15.5968 17.8497C14.6428 17.9031 12.8771 18.3962 12.0957 19.0707C11.3143 19.7453 10.8231 21.1924 10.6629 22.5184C10.5401 23.5401 10.2909 25.5959 10.1859 26.6033C10.1093 27.3224 10.0115 28.1073 9.78897 28.7819C9.56648 29.4565 9.29238 30.067 8.96309 30.6134C8.63381 31.158 8.23867 31.619 7.7759 31.9928C7.31313 32.3666 6.74712 32.5873 6.07965 32.6549C5.57238 32.7066 5.05977 32.5891 4.54182 32.3061C4.02387 32.0213 3.67679 31.4802 3.60559 30.7896C3.53261 30.0759 3.59847 27.9863 3.75866 26.7136C3.91885 25.441 4.23034 23.5614 4.40299 22.8406C4.72159 21.5146 4.42079 20.3879 4.32645 20.1049C4.28195 19.9714 4.14668 19.8931 4.00963 19.918C3.50414 20.0123 2.29558 20.1725 1.43411 19.7631C1.11195 19.6101 0.0546878 18.9675 0.00129075 17.2695C-0.0432068 15.8384 1.07279 15.0197 1.80433 14.7758C2.75836 14.4572 4.14846 14.4911 4.5881 14.1191C5.02773 13.7488 5.41575 13.2772 5.75393 12.7076C6.20781 11.9155 6.55667 11.1128 6.80051 10.2958C7.04258 9.47886 7.26507 8.68325 7.46442 7.90543C7.66377 7.12761 7.89693 6.38184 8.16214 5.6681C8.42734 4.95436 8.79756 4.31715 9.27636 3.7547C9.75515 3.19404 10.3995 2.72058 11.2093 2.33434C12.0192 1.94988 13.0818 1.68824 14.3954 1.55475C14.8795 1.50491 15.4063 1.47465 15.9759 1.46397C16.5455 1.45329 17.0688 1.51025 17.5476 1.63484C18.0263 1.76122 18.4393 1.98548 18.7864 2.3112C19.1334 2.63693 19.3399 3.11038 19.404 3.73335L19.4022 3.72979Z" fill="var(--logo-color)"></path><path d="M31.1065 2.29693C31.1813 3.03558 31.1065 3.88104 30.8769 4.83506C30.6473 5.79087 30.3501 6.81075 29.9852 7.89471C29.6185 8.98045 29.2163 10.116 28.7784 11.3014C28.3406 12.4869 27.9436 13.6812 27.5894 14.8808C27.2352 16.0823 26.9558 17.2801 26.7511 18.4762C26.5464 19.6741 26.5001 20.8132 26.6123 21.8972C26.6692 22.4507 26.7849 22.8993 26.9593 23.241C27.1338 23.5845 27.31 23.8871 27.488 24.147C27.666 24.4086 27.8368 24.6525 27.9988 24.8803C28.1626 25.1081 28.2605 25.3947 28.2961 25.74C28.3601 26.363 28.264 26.9129 28.0113 27.3935C27.7567 27.8741 27.415 28.287 26.986 28.6341C26.5553 28.9812 26.0587 29.2535 25.498 29.4493C24.9356 29.6469 24.3892 29.7715 23.8605 29.8266C22.385 29.9779 21.1373 29.6736 20.1174 28.9171C19.0975 28.1607 18.5048 26.9752 18.3393 25.3609C18.2396 24.3926 18.2717 23.1093 18.4354 21.5092C18.5974 19.909 18.875 18.1861 19.2702 16.3421C19.6635 14.4981 20.1548 12.631 20.7422 10.7426C21.3295 8.85408 21.9988 7.13825 22.7481 5.59508C23.4992 4.05191 24.3287 2.76682 25.2364 1.74338C26.1442 0.719935 27.0946 0.155706 28.086 0.054252C28.3388 0.0275535 28.6289 0.0115342 28.9546 0.000854784C29.2803 -0.00804472 29.5883 0.0524721 29.8819 0.185965C30.1756 0.319457 30.4373 0.549064 30.6687 0.874786C30.9 1.20051 31.0478 1.67396 31.1101 2.29693H31.1065Z" fill="var(--logo-color)"></path><path d="M47.5867 16.6108C47.7345 18.0632 47.6259 19.4533 47.2628 20.7829C46.8979 22.1125 46.3088 23.2961 45.4954 24.3338C44.6819 25.3715 43.6745 26.2312 42.4749 26.9129C41.2752 27.5946 39.9154 28.0129 38.3935 28.1677C37.1957 28.2905 36.0387 28.2033 34.9263 27.9114C33.8139 27.6177 32.8207 27.1372 31.9503 26.4697C31.0781 25.8022 30.3591 24.9781 29.7948 24.001C29.2288 23.022 28.8817 21.9114 28.7554 20.6672C28.5934 19.0778 28.7376 17.5951 29.1914 16.221C29.6453 14.8469 30.3252 13.642 31.233 12.6061C32.1407 11.5701 33.2532 10.7283 34.5739 10.0821C35.8928 9.43605 37.3256 9.03201 38.8688 8.87537C39.8833 8.77214 40.8818 8.87538 41.8697 9.17974C42.8558 9.48588 43.7493 9.9718 44.5502 10.6357C45.3512 11.2996 46.024 12.1326 46.5704 13.1365C47.1151 14.1403 47.455 15.299 47.5885 16.6126L47.5867 16.6108ZM42.6546 15.8579C42.5407 14.7508 42.1402 13.9072 41.4532 13.3251C40.7644 12.7431 39.8673 12.5099 38.762 12.6221C38.0714 12.6933 37.4733 12.8873 36.9696 13.2077C36.4659 13.5263 36.0601 13.9303 35.7486 14.4162C35.4371 14.9021 35.22 15.4539 35.0972 16.0715C34.9743 16.6891 34.9459 17.321 35.0117 17.9671C35.0616 18.4512 35.2146 18.8713 35.4727 19.2308C35.7308 19.5886 36.0458 19.877 36.4161 20.0959C36.7881 20.3148 37.1939 20.4714 37.6335 20.5658C38.0732 20.6601 38.5021 20.6868 38.9168 20.6441C39.4935 20.5854 40.0222 20.4145 40.5063 20.1315C40.9886 19.8503 41.4016 19.4925 41.7415 19.0618C42.0815 18.631 42.3342 18.1398 42.4998 17.5862C42.6635 17.0344 42.7169 16.4578 42.6546 15.8579Z" fill="var(--logo-color)"></path><path d="M74.9547 8.22564C75.0295 8.9643 75.0117 9.87383 74.9013 10.956C74.791 12.0382 74.5916 13.1773 74.3068 14.3699C74.0203 15.5642 73.6483 16.7656 73.1908 17.9777C72.7316 19.1898 72.1923 20.2863 71.5711 21.2688C70.95 22.253 70.2522 23.0682 69.4815 23.7179C68.7091 24.3676 67.8618 24.7396 66.9398 24.8339C66.2492 24.9051 65.6779 24.7823 65.2258 24.4672C64.7737 24.1522 64.3999 23.7428 64.1044 23.2373C63.809 22.7318 63.5634 22.1694 63.3729 21.5482C63.1807 20.927 62.9956 20.3592 62.814 19.8413C62.6325 19.3251 62.4385 18.8961 62.2284 18.5562C62.0184 18.2162 61.7407 18.0649 61.3954 18.1005C60.9113 18.1504 60.4396 18.3853 59.9822 18.8036C59.5248 19.2236 59.0691 19.7291 58.617 20.3236C58.1649 20.9181 57.7128 21.5624 57.2607 22.2619C56.8086 22.9597 56.3441 23.6075 55.8688 24.2038C55.3936 24.8001 54.9041 25.3091 54.4004 25.7327C53.8967 26.1564 53.3681 26.3967 52.8145 26.4536C52.2841 26.507 51.7502 26.4696 51.2126 26.3379C50.6751 26.2062 50.1821 25.9891 49.7317 25.6865C49.2814 25.3839 48.9059 25.0083 48.6033 24.5616C48.3007 24.1148 48.1209 23.604 48.0622 23.0273C47.9981 22.4043 47.9928 21.6141 48.0462 20.6529C48.0996 19.6935 48.2224 18.6737 48.4146 17.5933C48.6068 16.5146 48.8614 15.4236 49.18 14.3182C49.4986 13.2147 49.8955 12.2073 50.3725 11.2977C50.8495 10.3882 51.4013 9.63354 52.0278 9.03193C52.6526 8.43211 53.3699 8.09214 54.1762 8.00849C54.8436 7.94085 55.3135 8.09036 55.5841 8.4588C55.8546 8.82724 56.0184 9.28824 56.0753 9.84001C56.1412 10.4861 56.134 11.1607 56.0557 11.8673C55.9756 12.5739 55.9614 13.1577 56.0077 13.6187C56.054 14.0797 56.2177 14.3076 56.4971 14.3022C57.0507 14.2453 57.517 14.0352 57.8997 13.6704C58.2824 13.3055 58.6206 12.8623 58.916 12.3443C59.2115 11.8246 59.4874 11.2621 59.7383 10.6534C59.9911 10.0465 60.2705 9.48047 60.5785 8.96074C60.8864 8.441 61.2317 7.99781 61.6126 7.63293C61.9953 7.26805 62.4741 7.05624 63.049 6.99751C63.4637 6.95479 63.809 7.08828 64.0849 7.39798C64.3608 7.70769 64.6117 8.10104 64.8342 8.57984C65.0585 9.05863 65.256 9.58548 65.4323 10.1604C65.6067 10.7371 65.7829 11.2657 65.9609 11.7481C66.1371 12.2304 66.3364 12.6291 66.5554 12.9442C66.7743 13.2592 67.0324 13.4016 67.3332 13.3713C67.8636 13.3179 68.2659 13.1008 68.5417 12.7234C68.8176 12.3461 69.0259 11.8887 69.17 11.3494C69.3124 10.8101 69.4281 10.228 69.5153 9.60328C69.6026 8.97676 69.7289 8.39295 69.8963 7.85364C70.0618 7.31255 70.2825 6.85333 70.5584 6.47599C70.8343 6.09865 71.249 5.88151 71.8025 5.82455C72.171 5.78717 72.5358 5.81387 72.8936 5.90465C73.2531 5.99542 73.5771 6.14849 73.8654 6.36386C74.1556 6.57923 74.3976 6.84621 74.5934 7.16304C74.7892 7.48164 74.9067 7.83584 74.9458 8.22742L74.9547 8.22564Z" fill="var(--logo-color)"></path></svg>