<svg width="41" height="40" viewBox="0 0 41 40" fill="none" xmlns="http://www.w3.org/2000/svg">
<path d="M0.5 11C0.5 4.92487 5.42487 0 11.5 0H29.5C35.5751 0 40.5 4.92487 40.5 11V29C40.5 35.0751 35.5751 40 29.5 40H11.5C5.42487 40 0.5 35.0751 0.5 29V11Z" fill="#FFB4DF"/>
<path d="M25.5 18H27.5C29.5 18 30.5 17 30.5 15V13C30.5 11 29.5 10 27.5 10H25.5C23.5 10 22.5 11 22.5 13V15C22.5 17 23.5 18 25.5 18Z" fill="#FC68B9"/>
<path d="M13.5 30H15.5C17.5 30 18.5 29 18.5 27V25C18.5 23 17.5 22 15.5 22H13.5C11.5 22 10.5 23 10.5 25V27C10.5 29 11.5 30 13.5 30Z" fill="#FC68B9"/>
<path d="M26.5 30C28.7091 30 30.5 28.2091 30.5 26C30.5 23.7909 28.7091 22 26.5 22C24.2909 22 22.5 23.7909 22.5 26C22.5 28.2091 24.2909 30 26.5 30Z" fill="#FC68B9"/>
<path d="M18.5 14C18.5 16.2091 16.7091 18 14.5 18C12.2909 18 10.5 16.2091 10.5 14C10.5 11.7909 12.2909 10 14.5 10C16.7091 10 18.5 11.7909 18.5 14Z" fill="#FC68B9"/>
</svg>
