<svg width="38" height="28" viewBox="0 0 38 28" fill="none" xmlns="http://www.w3.org/2000/svg">
<path d="M36.9331 4.21307C36.7928 4.21218 36.6536 4.23918 36.5238 4.29248C36.394 4.34578 36.276 4.42433 36.1767 4.52357C36.0775 4.62282 35.9989 4.74079 35.9456 4.87063C35.8923 5.00046 35.8653 5.13959 35.8662 5.27995V21.4964C35.8643 21.8974 35.7805 22.2937 35.62 22.6612C35.4596 23.0287 35.2258 23.3596 34.9331 23.6336C34.6403 23.9076 34.2948 24.119 33.9175 24.2549C33.5402 24.3907 33.1392 24.4481 32.739 24.4236C27.0179 24.1302 23.8439 26.1973 22.8371 27.0041C22.8147 27.025 22.7994 27.0523 22.7933 27.0823C22.7873 27.1123 22.7907 27.1434 22.8032 27.1713C22.8157 27.1992 22.8366 27.2226 22.863 27.238C22.8894 27.2535 22.92 27.2603 22.9504 27.2575C30.4652 26.3507 34.4726 27.1775 36.4197 27.9243C36.597 27.9915 36.7881 28.0145 36.9763 27.9912C37.1645 27.9679 37.3442 27.8991 37.4998 27.7908C37.6555 27.6824 37.7824 27.5377 37.8695 27.3693C37.9567 27.2009 38.0014 27.0137 38 26.8241V5.28661C38.0009 5.14595 37.9739 5.0065 37.9207 4.87629C37.8675 4.74608 37.789 4.62768 37.6899 4.52791C37.5907 4.42813 37.4728 4.34895 37.3429 4.29491C37.213 4.24088 37.0738 4.21307 36.9331 4.21307Z" fill="white"/>
<path d="M32.3989 22.4562C32.5841 22.4589 32.7681 22.4246 32.9399 22.3553C33.1117 22.2861 33.268 22.1832 33.3997 22.0528C33.5313 21.9225 33.6356 21.7671 33.7065 21.596C33.7773 21.4248 33.8134 21.2412 33.8125 21.0559V0.992095C33.8129 0.74465 33.7183 0.506485 33.5484 0.326623C33.3785 0.146762 33.146 0.0388968 32.899 0.0252449C30.3985 -0.108114 23.4705 0.085252 20.5699 5.79302C20.5631 5.81698 20.5631 5.84239 20.5699 5.86636V26.437C20.5701 26.4655 20.5785 26.4934 20.5942 26.5172C20.6099 26.541 20.6322 26.5597 20.6584 26.571C20.6846 26.5823 20.7135 26.5858 20.7416 26.5809C20.7697 26.5761 20.7958 26.5631 20.8167 26.5437C24.8108 22.8163 29.9517 22.4095 32.3989 22.4562Z" fill="white"/>
<path d="M5.94714 0.0254758C5.70007 0.0391276 5.46766 0.146992 5.29772 0.326854C5.12778 0.506716 5.03326 0.744881 5.03363 0.992326V21.0562C5.03273 21.2414 5.06881 21.425 5.13969 21.5962C5.21058 21.7674 5.31485 21.9227 5.44647 22.0531C5.5781 22.1835 5.7344 22.2863 5.90624 22.3555C6.07807 22.4248 6.26199 22.4591 6.44724 22.4564C8.89437 22.4098 14.0354 22.8165 18.0495 26.5439C18.0703 26.5634 18.0964 26.5763 18.1245 26.5811C18.1526 26.586 18.1816 26.5826 18.2077 26.5712C18.2339 26.5599 18.2562 26.5412 18.2719 26.5174C18.2876 26.4936 18.2961 26.4657 18.2962 26.4372V5.86659C18.303 5.84263 18.303 5.81721 18.2962 5.79325C15.3756 0.098819 8.44762 -0.107883 5.94714 0.0254758Z" fill="white"/>
<path d="M6.10719 24.4236C5.70695 24.4481 5.30593 24.3907 4.92866 24.2549C4.55138 24.119 4.20578 23.9076 3.91304 23.6336C3.62029 23.3596 3.38655 23.0287 3.2261 22.6612C3.06565 22.2937 2.98189 21.8974 2.97992 21.4964V5.27995C2.9808 5.13959 2.95382 5.00046 2.90051 4.87063C2.84721 4.74079 2.76864 4.62282 2.66939 4.52357C2.57015 4.42433 2.4522 4.34578 2.32236 4.29248C2.19252 4.23918 2.05337 4.21218 1.91302 4.21307C1.63007 4.21307 1.35872 4.32547 1.15864 4.52555C0.958567 4.72563 0.846165 4.99699 0.846165 5.27995V26.8174C0.844699 27.0071 0.889457 27.1942 0.976602 27.3626C1.06375 27.5311 1.19066 27.6757 1.3463 27.7841C1.50194 27.8925 1.68162 27.9612 1.86984 27.9845C2.05805 28.0078 2.24912 27.9848 2.42647 27.9176C4.37351 27.1775 8.38093 26.3507 15.8957 27.2508C15.9262 27.2536 15.9567 27.2468 15.9831 27.2313C16.0095 27.2159 16.0304 27.1926 16.0429 27.1646C16.0554 27.1367 16.0589 27.1056 16.0528 27.0756C16.0467 27.0456 16.0314 27.0183 16.0091 26.9974C15.0022 26.1973 11.8283 24.1036 6.10719 24.4236Z" fill="white"/>
</svg>
