<svg width="53" height="37" viewBox="0 0 53 37" fill="none" xmlns="http://www.w3.org/2000/svg">
<rect x="0.505651" y="0.497453" width="51" height="35" rx="5.5" transform="matrix(0.999987 -0.00502941 0.0113156 0.999936 -0.00562259 0.264294)" fill="white"/>
<rect x="0.505651" y="0.497453" width="51" height="35" rx="5.5" transform="matrix(0.999987 -0.00502941 0.0113156 0.999936 -0.00562259 0.264294)" stroke="#CBD5E1"/>
<path d="M31.8406 7.47371L20.2205 7.51367L20.5726 28.7872L32.1927 28.7473L31.8406 7.47371Z" fill="#FF5F00"/>
<path d="M20.9832 18.1897C20.9113 13.8628 22.8496 10.0182 25.8855 7.5244C23.5939 5.72614 20.721 4.64479 17.6067 4.65546C10.2287 4.68073 4.36019 10.7588 4.48461 18.2462C4.60904 25.7335 10.6788 31.7707 18.0568 31.7454C21.1712 31.7348 24.0078 30.6339 26.2394 28.8201C23.1215 26.385 21.0551 22.5165 20.9832 18.1897Z" fill="#EB001B"/>
<path d="M47.9219 18.016C48.0463 25.5034 42.1778 31.5814 34.7998 31.6067C31.6855 31.6174 28.8125 30.536 26.5209 28.7378C29.594 26.2439 31.4952 22.3994 31.4233 18.0725C31.3514 13.7456 29.2856 9.91476 26.167 7.44205C28.3986 5.6283 31.2353 4.5274 34.3496 4.51673C41.7276 4.49146 47.7981 10.5663 47.9219 18.016Z" fill="#F79E1B"/>
</svg>
