<svg width="20" height="18" viewBox="0 0 20 18" fill="none" xmlns="http://www.w3.org/2000/svg">
<path d="M16 4.98828C16.7956 4.98828 17.5587 5.30435 18.1213 5.86696C18.6839 6.42957 19 7.19263 19 7.98828C19 8.78393 18.6839 9.54699 18.1213 10.1096C17.5587 10.6722 16.7956 10.9883 16 10.9883M8 4.98828V15.9883C8 16.2535 7.89464 16.5079 7.70711 16.6954C7.51957 16.8829 7.26522 16.9883 7 16.9883H6C5.73478 16.9883 5.48043 16.8829 5.29289 16.6954C5.10536 16.5079 5 16.2535 5 15.9883V10.9883M10 4.99018L14.524 1.22018C14.6555 1.11069 14.8154 1.04093 14.9851 1.01909C15.1548 0.997241 15.3271 1.02421 15.482 1.09683C15.6369 1.16946 15.7679 1.28473 15.8597 1.42913C15.9514 1.57354 16.0001 1.7411 16 1.91218V14.0682C16.0001 14.2393 15.9514 14.4068 15.8597 14.5512C15.7679 14.6956 15.6369 14.8109 15.482 14.8835C15.3271 14.9562 15.1548 14.9831 14.9851 14.9613C14.8154 14.9394 14.6555 14.8697 14.524 14.7602L10 10.9902H2C1.73478 10.9902 1.48043 10.8848 1.29289 10.6973C1.10536 10.5098 1 10.2554 1 9.99018V5.99018C1 5.72497 1.10536 5.47061 1.29289 5.28308C1.48043 5.09554 1.73478 4.99018 2 4.99018H10Z" stroke="#C6C6C6" stroke-width="1.5" stroke-linecap="round" stroke-linejoin="round"/>
</svg>
