<svg width="25" height="24" viewBox="0 0 25 24" fill="none" xmlns="http://www.w3.org/2000/svg">
<path d="M18.4519 10.79V14.79C18.4519 15.05 18.4419 15.3 18.4119 15.54C18.1819 18.24 16.5919 19.58 13.6619 19.58H13.2619C13.0119 19.58 12.7719 19.7 12.6219 19.9L11.4219 21.5C10.8919 22.21 10.0319 22.21 9.50192 21.5L8.30191 19.9C8.17191 19.73 7.88193 19.58 7.66193 19.58H7.26193C4.07193 19.58 2.47192 18.79 2.47192 14.79V10.79C2.47192 7.86001 3.82193 6.27001 6.51193 6.04001C6.75193 6.01001 7.00193 6 7.26193 6H13.6619C16.8519 6 18.4519 7.60001 18.4519 10.79Z" stroke="#FC68B9" stroke-width="1.5" stroke-miterlimit="10" stroke-linecap="round" stroke-linejoin="round"/>
<path d="M22.451 6.79001V10.79C22.451 13.73 21.101 15.31 18.411 15.54C18.441 15.3 18.451 15.05 18.451 14.79V10.79C18.451 7.60001 16.851 6 13.661 6H7.26099C7.00099 6 6.75099 6.01001 6.51099 6.04001C6.74099 3.35001 8.33099 2 11.261 2H17.661C20.851 2 22.451 3.60001 22.451 6.79001Z" stroke="#FC68B9" stroke-width="1.5" stroke-miterlimit="10" stroke-linecap="round" stroke-linejoin="round"/>
<path d="M13.9674 13.25H13.9764" stroke="#FC68B9" stroke-width="2" stroke-linecap="round" stroke-linejoin="round"/>
<path d="M10.4674 13.25H10.4764" stroke="#FC68B9" stroke-width="2" stroke-linecap="round" stroke-linejoin="round"/>
<path d="M6.96742 13.25H6.97642" stroke="#FC68B9" stroke-width="2" stroke-linecap="round" stroke-linejoin="round"/>
</svg>
