<svg width="40" height="40" viewBox="0 0 40 40" fill="none" xmlns="http://www.w3.org/2000/svg">
<path d="M0 11C0 4.92487 4.92487 0 11 0H29C35.0751 0 40 4.92487 40 11V29C40 35.0751 35.0751 40 29 40H11C4.92487 40 0 35.0751 0 29V11Z" fill="#FFB4DF"/>
<path d="M20.1197 20.7805C20.0497 20.7705 19.9597 20.7705 19.8797 20.7805C18.1197 20.7205 16.7197 19.2805 16.7197 17.5105C16.7197 15.7005 18.1797 14.2305 19.9997 14.2305C21.8097 14.2305 23.2797 15.7005 23.2797 17.5105C23.2697 19.2805 21.8797 20.7205 20.1197 20.7805Z" stroke="white" stroke-width="1.5" stroke-linecap="round" stroke-linejoin="round"/>
<path d="M26.7398 27.3805C24.9598 29.0105 22.5998 30.0005 19.9998 30.0005C17.3998 30.0005 15.0398 29.0105 13.2598 27.3805C13.3598 26.4405 13.9598 25.5205 15.0298 24.8005C17.7698 22.9805 22.2498 22.9805 24.9698 24.8005C26.0398 25.5205 26.6398 26.4405 26.7398 27.3805Z" stroke="white" stroke-width="1.5" stroke-linecap="round" stroke-linejoin="round"/>
<path d="M20 30C25.5228 30 30 25.5228 30 20C30 14.4772 25.5228 10 20 10C14.4772 10 10 14.4772 10 20C10 25.5228 14.4772 30 20 30Z" stroke="white" stroke-width="1.5" stroke-linecap="round" stroke-linejoin="round"/>
</svg>
