<svg width="40" height="41" viewBox="0 0 40 41" fill="none" xmlns="http://www.w3.org/2000/svg">
<rect x="0.5" y="1" width="39" height="39" rx="19.5" stroke="white"/>
<path d="M27.3376 22.99L26.3376 21.33C26.1276 20.96 25.9376 20.26 25.9376 19.85V17.32C25.9376 14.97 24.5576 12.94 22.5676 11.99C22.0476 11.07 21.0876 10.5 19.9876 10.5C18.8976 10.5 17.9176 11.09 17.3976 12.02C15.4476 12.99 14.0976 15 14.0976 17.32V19.85C14.0976 20.26 13.9076 20.96 13.6976 21.32L12.6876 22.99C12.2876 23.66 12.1976 24.4 12.4476 25.08C12.6876 25.75 13.2576 26.27 13.9976 26.52C15.9376 27.18 17.9776 27.5 20.0176 27.5C22.0576 27.5 24.0976 27.18 26.0376 26.53C26.7376 26.3 27.2776 25.77 27.5376 25.08C27.7976 24.39 27.7276 23.63 27.3376 22.99Z" fill="white"/>
<path d="M22.8273 28.51C22.4073 29.67 21.2973 30.5 19.9973 30.5C19.2073 30.5 18.4273 30.18 17.8773 29.61C17.5573 29.31 17.3173 28.91 17.1773 28.5C17.3073 28.52 17.4373 28.53 17.5773 28.55C17.8073 28.58 18.0473 28.61 18.2873 28.63C18.8573 28.68 19.4373 28.71 20.0173 28.71C20.5873 28.71 21.1573 28.68 21.7173 28.63C21.9273 28.61 22.1373 28.6 22.3373 28.57C22.4973 28.55 22.6573 28.53 22.8273 28.51Z" fill="white"/>
</svg>
