<svg width="56" height="56" viewBox="0 0 56 56" fill="none" xmlns="http://www.w3.org/2000/svg">
<path d="M21.8097 2.99922C24.9678 -0.99974 31.0322 -0.999741 34.1903 2.99922C35.8882 5.14921 38.5801 6.26422 41.301 5.94456C46.3618 5.35 50.65 9.63817 50.0554 14.699C49.7358 17.4199 50.8508 20.1118 53.0008 21.8097C56.9997 24.9678 56.9997 31.0322 53.0008 34.1903C50.8508 35.8882 49.7358 38.5801 50.0554 41.301C50.65 46.3618 46.3618 50.65 41.301 50.0554C38.5801 49.7358 35.8882 50.8508 34.1903 53.0008C31.0322 56.9997 24.9678 56.9997 21.8097 53.0008C20.1118 50.8508 17.4199 49.7358 14.699 50.0554C9.63817 50.65 5.35 46.3618 5.94456 41.301C6.26422 38.5801 5.14921 35.8882 2.99922 34.1903C-0.99974 31.0322 -0.999741 24.9678 2.99922 21.8097C5.14921 20.1118 6.26422 17.4199 5.94456 14.699C5.35 9.63817 9.63817 5.35 14.699 5.94456C17.4199 6.26422 20.1118 5.14921 21.8097 2.99922Z" fill="#FC68B9"/>
<path d="M38.9327 25.5585C40.9583 26.7279 40.9583 29.6515 38.9327 30.821L25.4565 38.6015C23.4309 39.771 20.899 38.3091 20.899 35.9702L20.899 20.4092C20.899 18.0703 23.431 16.6085 25.4565 17.7779L38.9327 25.5585Z" fill="white"/>
</svg>
