<svg width="20" height="22" viewBox="0 0 20 22" fill="none" xmlns="http://www.w3.org/2000/svg">
<path d="M19 6V16C19 19 17.5 21 14 21H6C2.5 21 1 19 1 16V6C1 3 2.5 1 6 1H14C17.5 1 19 3 19 6Z" stroke="#68E1E0" stroke-width="1.5" stroke-miterlimit="10" stroke-linecap="round" stroke-linejoin="round"/>
<path d="M13.5 1V8.85999C13.5 9.29999 12.98 9.51998 12.66 9.22998L10.34 7.09003C10.15 6.91003 9.84997 6.91003 9.65997 7.09003L7.34003 9.22998C7.02003 9.51998 6.5 9.29999 6.5 8.85999V1H13.5Z" stroke="#68E1E0" stroke-width="1.5" stroke-miterlimit="10" stroke-linecap="round" stroke-linejoin="round"/>
<path d="M11.25 13H15.5" stroke="#68E1E0" stroke-width="1.5" stroke-miterlimit="10" stroke-linecap="round" stroke-linejoin="round"/>
<path d="M7 17H15.5" stroke="#68E1E0" stroke-width="1.5" stroke-miterlimit="10" stroke-linecap="round" stroke-linejoin="round"/>
</svg>
