<svg width="16" height="23" viewBox="0 0 16 23" fill="none" xmlns="http://www.w3.org/2000/svg">
<path d="M7.66667 11.5C5.89856 11.5 4.20286 10.7976 2.95262 9.54738C1.70238 8.29714 1 6.60144 1 4.83333V2.61111C1 2.31643 1.11706 2.03381 1.32544 1.82544C1.53381 1.61706 1.81643 1.5 2.11111 1.5H13.2222C13.5169 1.5 13.7995 1.61706 14.0079 1.82544C14.2163 2.03381 14.3333 2.31643 14.3333 2.61111V4.83333C14.3333 6.60144 13.631 8.29714 12.3807 9.54738C11.1305 10.7976 9.43478 11.5 7.66667 11.5ZM7.66667 11.5C5.89856 11.5 4.20286 12.2024 2.95262 13.4526C1.70238 14.7029 1 16.3986 1 18.1667V20.3889C1 20.6836 1.11706 20.9662 1.32544 21.1746C1.53381 21.3829 1.81643 21.5 2.11111 21.5H13.2222C13.5169 21.5 13.7995 21.3829 14.0079 21.1746C14.2163 20.9662 14.3333 20.6836 14.3333 20.3889V18.1667C14.3333 16.3986 13.631 14.7029 12.3807 13.4526C11.1305 12.2024 9.43478 11.5 7.66667 11.5ZM1.55556 17.0556H13.7778" stroke="#FC68B9" stroke-width="2" stroke-linecap="round" stroke-linejoin="round"/>
</svg>
