<svg width="41" height="40" viewBox="0 0 41 40" fill="none" xmlns="http://www.w3.org/2000/svg">
<path d="M16.0198 2.1423C18.2756 -0.7141 22.6073 -0.714101 24.8631 2.1423C26.0759 3.67801 27.9986 4.47444 29.9421 4.24612C33.557 3.82143 36.62 6.88441 36.1953 10.4993C35.967 12.4428 36.7634 14.3655 38.2991 15.5783C41.1555 17.8341 41.1555 22.1659 38.2991 24.4217C36.7634 25.6345 35.967 27.5572 36.1953 29.5007C36.62 33.1156 33.557 36.1786 29.9421 35.7539C27.9986 35.5256 26.0759 36.322 24.8631 37.8577C22.6073 40.7141 18.2756 40.7141 16.0198 37.8577C14.807 36.322 12.8842 35.5256 10.9407 35.7539C7.32582 36.1786 4.26284 33.1156 4.68752 29.5007C4.91585 27.5572 4.11941 25.6345 2.58371 24.4217C-0.272694 22.1659 -0.272694 17.8342 2.58371 15.5783C4.11941 14.3655 4.91585 12.4428 4.68752 10.4993C4.26284 6.88441 7.32582 3.82143 10.9407 4.24612C12.8842 4.47444 14.807 3.67801 16.0198 2.1423Z" fill="#FC68B9"/>
</svg>
