<svg width="52" height="36" viewBox="0 0 52 36" fill="none" xmlns="http://www.w3.org/2000/svg">
<rect width="52" height="36" rx="6" fill="white"/>
<path fill-rule="evenodd" clip-rule="evenodd" d="M15.7879 24.3907H12.6377L10.2754 15.2918C10.1633 14.8733 9.92524 14.5033 9.57505 14.3289C8.7011 13.8906 7.73808 13.5418 6.6875 13.3659V13.0156H11.7622C12.4626 13.0156 12.9879 13.5418 13.0754 14.153L14.3011 20.7163L17.4498 13.0156H20.5124L15.7879 24.3907ZM22.2642 24.3907H19.2891L21.7389 13.0156H24.714L22.2642 24.3907ZM28.5618 16.1636C28.6494 15.5509 29.1747 15.2006 29.7875 15.2006C30.7505 15.1127 31.7996 15.2886 32.675 15.7253L33.2003 13.2762C32.3249 12.9259 31.3618 12.75 30.4879 12.75C27.6003 12.75 25.4992 14.3256 25.4992 16.5124C25.4992 18.1759 26.9875 19.0494 28.0381 19.5756C29.1747 20.1003 29.6124 20.4506 29.5249 20.9753C29.5249 21.7624 28.6494 22.1127 27.7754 22.1127C26.7249 22.1127 25.6743 21.8503 24.7128 21.4121L24.1875 23.8627C25.2381 24.2994 26.3747 24.4753 27.4252 24.4753C30.663 24.5618 32.675 22.9877 32.675 20.625C32.675 17.6497 28.5618 17.4753 28.5618 16.1636ZM43.0895 24.3907L40.7272 13.0156H38.1898C37.6646 13.0156 37.1393 13.3659 36.9642 13.8906L32.5898 24.3907H35.6525L36.2638 22.7286H40.0268L40.377 24.3907H43.0895ZM38.6266 16.0781L39.5006 20.3652H37.0508L38.6266 16.0781Z" fill="#172B85"/>
</svg>
