<svg xmlns="http://www.w3.org/2000/svg" width="1920" height="1000" viewBox="0 0 1920 1000" fill="none">
  <g clip-path="url(#clip0_3759_3985)">
    <rect width="1920" height="1000" fill="#FFB4DF"/>
    <path d="M1600 851C1512.08 851 1465.45 841.68 1424.31 833.45C1385.55 825.7 1352.07 819 1280 819C1207.93 819 1174.44 825.7 1135.68 833.45C1094.54 841.68 1047.92 851 959.99 851C872.06 851 825.44 841.68 784.31 833.42C745.55 825.67 712.08 818.97 640 818.97C567.92 818.97 534.45 825.7 495.69 833.42C454.55 841.65 407.92 850.97 320 850.97C232.08 850.97 185.45 841.68 144.31 833.42C105.55 825.7 72.08 819 0 819V-138C87.92 -138 134.55 -128.67 175.69 -120.44C214.45 -112.69 247.92 -106 320 -106C392.08 -106 425.55 -112.69 464.31 -120.44C505.45 -128.67 552.08 -138 640 -138C727.92 -138 774.55 -128.67 815.69 -120.44C854.44 -112.69 887.92 -106 959.99 -106C1032.06 -106 1065.55 -112.69 1104.31 -120.44C1145.44 -128.67 1192.07 -138 1280 -138C1367.93 -138 1414.55 -128.67 1455.69 -120.44C1494.44 -112.69 1527.92 -106 1600 -106C1672.08 -106 1705.55 -112.69 1744.31 -120.44C1785.45 -128.67 1832.08 -138 1920 -138V819C1847.92 819 1814.45 825.7 1775.69 833.45C1734.55 841.68 1687.92 851 1600 851Z" fill="#FFBDE2"/>
    <path d="M1600 683C1512.08 683 1465.45 673.68 1424.31 665.45C1385.55 657.7 1352.07 651 1280 651C1207.93 651 1174.44 657.7 1135.68 665.45C1094.54 673.68 1047.92 683 959.99 683C872.06 683 825.44 673.68 784.31 665.42C745.55 657.67 712.08 650.97 640 650.97C567.92 650.97 534.45 657.7 495.69 665.42C454.55 673.65 407.92 682.97 320 682.97C232.08 682.97 185.45 673.68 144.31 665.42C105.55 657.7 72.08 651 0 651V-306C87.92 -306 134.55 -296.67 175.69 -288.44C214.45 -280.69 247.92 -274 320 -274C392.08 -274 425.55 -280.69 464.31 -288.44C505.45 -296.67 552.08 -306 640 -306C727.92 -306 774.55 -296.67 815.69 -288.44C854.44 -280.69 887.92 -274 959.99 -274C1032.06 -274 1065.55 -280.69 1104.31 -288.44C1145.44 -296.67 1192.07 -306 1280 -306C1367.93 -306 1414.55 -296.67 1455.69 -288.44C1494.44 -280.69 1527.92 -274 1600 -274C1672.08 -274 1705.55 -280.69 1744.31 -288.44C1785.45 -296.67 1832.08 -306 1920 -306V651C1847.92 651 1814.45 657.7 1775.69 665.45C1734.55 673.68 1687.92 683 1600 683Z" fill="#FFC6E7"/>
    <path d="M1600 515C1512.08 515 1465.45 505.68 1424.31 497.45C1385.55 489.7 1352.07 483 1280 483C1207.93 483 1174.44 489.7 1135.68 497.45C1094.54 505.68 1047.92 515 959.99 515C872.06 515 825.44 505.68 784.31 497.42C745.55 489.67 712.08 482.97 640 482.97C567.92 482.97 534.45 489.7 495.69 497.42C454.55 505.65 407.92 514.97 320 514.97C232.08 514.97 185.45 505.68 144.31 497.42C105.55 489.7 72.08 483 0 483V-474C87.92 -474 134.55 -464.67 175.69 -456.44C214.45 -448.69 247.92 -442 320 -442C392.08 -442 425.55 -448.69 464.31 -456.44C505.45 -464.67 552.08 -474 640 -474C727.92 -474 774.55 -464.67 815.69 -456.44C854.44 -448.69 887.92 -442 959.99 -442C1032.06 -442 1065.55 -448.69 1104.31 -456.44C1145.44 -464.67 1192.07 -474 1280 -474C1367.93 -474 1414.55 -464.67 1455.69 -456.44C1494.44 -448.69 1527.92 -442 1600 -442C1672.08 -442 1705.55 -448.69 1744.31 -456.44C1785.45 -464.67 1832.08 -474 1920 -474V483C1847.92 483 1814.45 489.7 1775.69 497.45C1734.55 505.68 1687.92 515 1600 515Z" fill="#FFCFEA"/>
    <path d="M1600 347C1512.08 347 1465.45 337.68 1424.31 329.45C1385.55 321.7 1352.07 315 1280 315C1207.93 315 1174.44 321.7 1135.68 329.45C1094.54 337.68 1047.92 347 959.99 347C872.06 347 825.44 337.68 784.31 329.42C745.55 321.67 712.08 314.97 640 314.97C567.92 314.97 534.45 321.7 495.69 329.42C454.55 337.65 407.92 346.97 320 346.97C232.08 346.97 185.45 337.68 144.31 329.42C105.55 321.7 72.08 315 0 315V-642C87.92 -642 134.55 -632.67 175.69 -624.44C214.45 -616.69 247.92 -610 320 -610C392.08 -610 425.55 -616.69 464.31 -624.44C505.45 -632.67 552.08 -642 640 -642C727.92 -642 774.55 -632.67 815.69 -624.44C854.44 -616.69 887.92 -610 959.99 -610C1032.06 -610 1065.55 -616.69 1104.31 -624.44C1145.44 -632.67 1192.07 -642 1280 -642C1367.93 -642 1414.55 -632.67 1455.69 -624.44C1494.44 -616.69 1527.92 -610 1600 -610C1672.08 -610 1705.55 -616.69 1744.31 -624.44C1785.45 -632.67 1832.08 -642 1920 -642V315C1847.92 315 1814.45 321.7 1775.69 329.45C1734.55 337.68 1687.92 347 1600 347Z" fill="#FFD8EF"/>
    <path d="M1600 179C1512.08 179 1465.45 169.68 1424.31 161.45C1385.55 153.7 1352.07 147 1280 147C1207.93 147 1174.44 153.7 1135.68 161.45C1094.54 169.68 1047.92 179 959.99 179C872.06 179 825.44 169.68 784.31 161.42C745.55 153.67 712.08 146.97 640 146.97C567.92 146.97 534.45 153.7 495.69 161.42C454.55 169.65 407.92 178.97 320 178.97C232.08 178.97 185.45 169.68 144.31 161.42C105.55 153.7 72.08 147 0 147V-810C87.92 -810 134.55 -800.67 175.69 -792.44C214.45 -784.69 247.92 -778 320 -778C392.08 -778 425.55 -784.69 464.31 -792.44C505.45 -800.67 552.08 -810 640 -810C727.92 -810 774.55 -800.67 815.69 -792.44C854.44 -784.69 887.92 -778 959.99 -778C1032.06 -778 1065.55 -784.69 1104.31 -792.44C1145.44 -800.67 1192.07 -810 1280 -810C1367.93 -810 1414.55 -800.67 1455.69 -792.44C1494.44 -784.69 1527.92 -778 1600 -778C1672.08 -778 1705.55 -784.69 1744.31 -792.44C1785.45 -800.67 1832.08 -810 1920 -810V147C1847.92 147 1814.45 153.7 1775.69 161.45C1734.55 169.68 1687.92 179 1600 179Z" fill="#FFE1F2"/>
  <path d="M1600 179C1512.08 179 1465.45 169.68 1424.31 161.45C1385.55 153.7 1352.07 147 1280 147C1207.93 147 1174.44 153.7 1135.68 161.45C1094.54 169.68 1047.92 179 959.99 179C872.06 179 825.44 169.68 784.31 161.42C745.55 153.67 712.08 146.97 640 146.97C567.92 146.97 534.45 153.7 495.69 161.42C454.55 169.65 407.92 178.97 320 178.97C232.08 178.97 185.45 169.68 144.31 161.42C105.55 153.7 72.08 147 0 147V-810C87.92 -810 134.55 -800.67 175.69 -792.44C214.45 -784.69 247.92 -778 320 -778C392.08 -778 425.55 -784.69 464.31 -792.44C505.45 -800.67 552.08 -810 640 -810C727.92 -810 774.55 -800.67 815.69 -792.44C854.44 -784.69 887.92 -778 959.99 -778C1032.06 -778 1065.55 -784.69 1104.31 -792.44C1145.44 -800.67 1192.07 -810 1280 -810C1367.93 -810 1414.55 -800.67 1455.69 -792.44C1494.44 -784.69 1527.92 -778 1600 -778C1672.08 -778 1705.55 -784.69 1744.31 -792.44C1785.45 -800.67 1832.08 -810 1920 -810V147C1847.92 147 1814.45 153.7 1775.69 161.45C1734.55 169.68 1687.92 179 1600 179Z" fill="#fff"/></g>
  <defs>
    <clipPath id="clip0_3759_3985">
      <rect width="1920" height="1920" fill="white"/>
    </clipPath>
  </defs>
</svg>