<svg width="516" height="93" viewBox="0 0 516 93" fill="none" xmlns="http://www.w3.org/2000/svg">
<path d="M74.0968 53.88C70.0268 53.88 66.3601 53.0367 63.0968 51.35C59.8334 49.6267 57.2668 47.2433 55.3968 44.2C53.5634 41.12 52.6468 37.6367 52.6468 33.75C52.6468 29.8633 53.5634 26.3983 55.3968 23.355C57.2668 20.275 59.8334 17.8917 63.0968 16.205C66.3601 14.4817 70.0268 13.62 74.0968 13.62C77.8368 13.62 81.1734 14.28 84.1068 15.6C87.0401 16.92 89.4601 18.8267 91.3668 21.32L83.1718 28.635C80.7884 25.6283 77.9834 24.125 74.7568 24.125C72.0434 24.125 69.8618 25.005 68.2118 26.765C66.5618 28.4883 65.7368 30.8167 65.7368 33.75C65.7368 36.6833 66.5618 39.03 68.2118 40.79C69.8618 42.5133 72.0434 43.375 74.7568 43.375C77.9834 43.375 80.7884 41.8717 83.1718 38.865L91.3668 46.18C89.4601 48.6733 87.0401 50.58 84.1068 51.9C81.1734 53.22 77.8368 53.88 74.0968 53.88ZM114.494 53.88C110.35 53.88 106.629 53.0183 103.329 51.295C100.029 49.5717 97.4438 47.1883 95.5738 44.145C93.7038 41.065 92.7688 37.6 92.7688 33.75C92.7688 29.9 93.7038 26.4533 95.5738 23.41C97.4438 20.33 100.029 17.9283 103.329 16.205C106.629 14.4817 110.35 13.62 114.494 13.62C118.637 13.62 122.359 14.4817 125.659 16.205C128.959 17.9283 131.544 20.33 133.414 23.41C135.284 26.4533 136.219 29.9 136.219 33.75C136.219 37.6 135.284 41.065 133.414 44.145C131.544 47.1883 128.959 49.5717 125.659 51.295C122.359 53.0183 118.637 53.88 114.494 53.88ZM114.494 43.375C116.107 43.375 117.555 42.99 118.839 42.22C120.159 41.4133 121.204 40.295 121.974 38.865C122.744 37.3983 123.129 35.6933 123.129 33.75C123.129 31.8067 122.744 30.12 121.974 28.69C121.204 27.2233 120.159 26.105 118.839 25.335C117.555 24.5283 116.107 24.125 114.494 24.125C112.88 24.125 111.414 24.5283 110.094 25.335C108.81 26.105 107.784 27.2233 107.014 28.69C106.244 30.12 105.859 31.8067 105.859 33.75C105.859 35.6933 106.244 37.3983 107.014 38.865C107.784 40.295 108.81 41.4133 110.094 42.22C111.414 42.99 112.88 43.375 114.494 43.375ZM178.88 14.5V53H168.21L153.58 35.51V53H140.93V14.5H151.6L166.23 31.99V14.5H178.88ZM193.494 24.565H182.219V14.5H217.749V24.565H206.474V53H193.494V24.565ZM237.62 43.32H234.1V53H221.12V14.5H239.655C243.212 14.5 246.31 15.0867 248.95 16.26C251.59 17.4333 253.625 19.12 255.055 21.32C256.485 23.52 257.2 26.0867 257.2 29.02C257.2 31.77 256.577 34.1717 255.33 36.225C254.084 38.2783 252.287 39.91 249.94 41.12L258.025 53H244.165L237.62 43.32ZM244.11 29.02C244.11 27.59 243.67 26.49 242.79 25.72C241.91 24.9133 240.59 24.51 238.83 24.51H234.1V33.53H238.83C240.59 33.53 241.91 33.145 242.79 32.375C243.67 31.5683 244.11 30.45 244.11 29.02ZM288.337 46.29H273.707L271.122 53H257.922L274.752 14.5H287.512L304.342 53H290.922L288.337 46.29ZM284.762 36.94L281.022 27.26L277.282 36.94H284.762ZM320.768 53.88C317.578 53.88 314.462 53.5317 311.418 52.835C308.412 52.1017 305.937 51.13 303.993 49.92L308.173 40.46C310.007 41.5233 312.06 42.385 314.333 43.045C316.607 43.6683 318.788 43.98 320.878 43.98C322.675 43.98 323.958 43.815 324.728 43.485C325.498 43.1183 325.883 42.5867 325.883 41.89C325.883 41.0833 325.37 40.4783 324.343 40.075C323.353 39.6717 321.703 39.2317 319.393 38.755C316.423 38.1317 313.948 37.4717 311.968 36.775C309.988 36.0417 308.265 34.8683 306.798 33.255C305.332 31.605 304.598 29.3867 304.598 26.6C304.598 24.18 305.277 21.98 306.633 20C307.99 18.02 310.007 16.4617 312.683 15.325C315.397 14.1883 318.678 13.62 322.528 13.62C325.168 13.62 327.753 13.9133 330.283 14.5C332.85 15.05 335.105 15.875 337.048 16.975L333.143 26.38C329.367 24.4733 325.792 23.52 322.418 23.52C319.082 23.52 317.413 24.3267 317.413 25.94C317.413 26.71 317.908 27.2967 318.898 27.7C319.888 28.0667 321.52 28.47 323.793 28.91C326.727 29.46 329.202 30.1017 331.218 30.835C333.235 31.5317 334.977 32.6867 336.443 34.3C337.947 35.9133 338.698 38.1133 338.698 40.9C338.698 43.32 338.02 45.52 336.663 47.5C335.307 49.4433 333.272 51.0017 330.558 52.175C327.882 53.3117 324.618 53.88 320.768 53.88ZM374.571 43.21V53H342.561V14.5H373.856V24.29H355.321V28.8H371.601V38.15H355.321V43.21H374.571ZM417.518 14.5V53H406.848L392.218 35.51V53H379.568V14.5H390.238L404.868 31.99V14.5H417.518ZM402.998 11.915C401.934 11.915 400.981 11.7317 400.138 11.365C399.294 10.9983 398.414 10.5033 397.498 9.88C396.874 9.47667 396.361 9.18333 395.958 9C395.591 8.78 395.224 8.67 394.858 8.67C394.161 8.67 393.593 8.90833 393.153 9.385C392.713 9.86166 392.456 10.5217 392.383 11.365H386.498C386.571 8.43167 387.268 6.12167 388.588 4.435C389.944 2.71166 391.778 1.85 394.088 1.85C395.151 1.85 396.104 2.03333 396.948 2.4C397.791 2.76667 398.671 3.26166 399.588 3.885C400.211 4.325 400.706 4.63666 401.073 4.82C401.476 5.00333 401.861 5.095 402.228 5.095C402.924 5.095 403.493 4.875 403.933 4.435C404.373 3.95833 404.629 3.335 404.703 2.565H410.588C410.514 5.38833 409.799 7.66166 408.443 9.385C407.123 11.0717 405.308 11.915 402.998 11.915ZM450.007 46.29H435.377L432.792 53H419.592L436.422 14.5H449.182L466.012 53H452.592L450.007 46.29ZM446.432 36.94L442.692 27.26L438.952 36.94H446.432Z" fill="#68E1E0"/>
<path d="M183.254 73.78C181.902 73.78 180.897 73.364 180.238 72.532C179.545 71.6653 179.198 70.5387 179.198 69.152C179.198 67.488 179.683 65.6853 180.654 63.744C181.59 61.8027 182.838 60.0867 184.398 58.596C185.646 57.452 186.877 56.88 188.09 56.88C189.13 56.88 189.91 57.2267 190.43 57.92C190.95 58.5787 191.21 59.48 191.21 60.624C191.21 61.8373 190.846 62.444 190.118 62.444C189.806 62.444 189.546 62.3573 189.338 62.184C189.165 61.976 189.078 61.7333 189.078 61.456C189.078 61.1093 189.095 60.884 189.13 60.78C189.13 60.7453 189.13 60.6933 189.13 60.624C189.165 60.5547 189.182 60.5027 189.182 60.468C189.182 59.428 188.818 58.908 188.09 58.908C187.397 58.908 186.651 59.3067 185.854 60.104C184.398 61.5253 183.254 63.068 182.422 64.732C181.59 66.3613 181.174 67.8347 181.174 69.152C181.174 70.8853 181.902 71.752 183.358 71.752C185.057 71.752 186.773 71.1107 188.506 69.828C190.239 68.5453 192.146 66.708 194.226 64.316C194.434 64.108 194.659 64.004 194.902 64.004C195.179 64.004 195.422 64.1253 195.63 64.368C195.838 64.576 195.942 64.8013 195.942 65.044C195.942 65.2173 195.855 65.4427 195.682 65.72C193.983 67.5573 192.631 68.944 191.626 69.88C190.655 70.7813 189.39 71.6653 187.83 72.532C186.27 73.364 184.745 73.78 183.254 73.78ZM208.815 71.908C207.428 73.1213 206.25 73.728 205.279 73.728C204.308 73.728 203.563 73.3987 203.043 72.74C202.523 72.0813 202.263 71.284 202.263 70.348C200.287 72.6013 198.328 73.728 196.387 73.728C195.174 73.728 194.255 73.3293 193.631 72.532C192.972 71.7347 192.643 70.712 192.643 69.464C192.643 66.4827 194.064 63.588 196.907 60.78C199.75 57.9373 202.731 56.516 205.851 56.516C207.099 56.516 208.104 56.7067 208.867 57.088C209.318 57.3653 209.543 57.6253 209.543 57.868C209.543 57.9027 209.491 58.076 209.387 58.388C208.382 60.8493 207.03 63.4493 205.331 66.188C204.638 67.9907 204.291 69.3773 204.291 70.348C204.291 71.2493 204.62 71.7 205.279 71.7C206.319 71.7 209.023 69.2387 213.391 64.316C213.634 64.0733 213.894 63.952 214.171 63.952C214.448 63.952 214.674 64.0733 214.847 64.316C215.055 64.524 215.159 64.7493 215.159 64.992C215.159 65.2693 215.055 65.512 214.847 65.72C212.212 68.5973 210.202 70.66 208.815 71.908ZM205.799 58.544C203.13 58.544 200.599 59.792 198.207 62.288C195.85 64.7493 194.671 67.1587 194.671 69.516C194.671 70.14 194.81 70.66 195.087 71.076C195.399 71.492 195.815 71.7 196.335 71.7C197.548 71.7 198.814 71.0413 200.131 69.724C201.448 68.372 202.575 66.8987 203.511 65.304V65.356C204.204 63.588 205.331 61.352 206.891 58.648C206.475 58.5787 206.111 58.544 205.799 58.544ZM227.905 73.676C227.177 73.676 226.813 73.312 226.813 72.584C226.813 72.0987 227.541 70.5387 228.997 67.904C230.072 64.7493 230.609 62.3227 230.609 60.624C230.609 59.4107 230.366 58.804 229.881 58.804C228.91 58.804 227.645 59.7227 226.085 61.56C224.56 63.3973 223.225 65.2693 222.081 67.176C220.972 69.0827 219.966 70.9373 219.065 72.74C218.753 73.26 218.406 73.52 218.025 73.52C217.713 73.52 217.47 73.416 217.297 73.208C217.124 73 217.037 72.7747 217.037 72.532C217.037 71.9773 217.349 71.2667 217.973 70.4C220.608 65.4773 221.925 62.0453 221.925 60.104C221.925 59.3067 221.734 58.908 221.353 58.908C221.041 58.908 220.694 59.0987 220.313 59.48C219.62 60.104 218.112 61.82 215.789 64.628L214.853 65.72C214.61 65.9627 214.368 66.084 214.125 66.084C213.848 66.084 213.605 65.9973 213.397 65.824C213.189 65.616 213.085 65.3733 213.085 65.096C213.085 64.784 213.172 64.5413 213.345 64.368C213.83 63.744 214.697 62.6867 215.945 61.196C217.228 59.7053 218.216 58.648 218.909 58.024C219.706 57.296 220.538 56.932 221.405 56.932C222.237 56.932 222.861 57.244 223.277 57.868C223.728 58.492 223.953 59.22 223.953 60.052C223.953 60.2947 223.918 60.6587 223.849 61.144C226.172 58.232 228.182 56.776 229.881 56.776C230.852 56.776 231.545 57.1747 231.961 57.972C232.412 58.7347 232.637 59.6013 232.637 60.572C232.637 61.3693 232.568 62.132 232.429 62.86C235.514 58.8387 238.322 56.828 240.853 56.828C241.685 56.828 242.326 57.0707 242.777 57.556C243.228 58.0413 243.453 58.6653 243.453 59.428C243.453 60.5373 242.846 62.496 241.633 65.304L241.321 66.032C240.142 68.7707 239.553 70.5387 239.553 71.336C239.553 71.5093 239.588 71.596 239.657 71.596C240.87 71.596 243.609 69.1693 247.873 64.316C248.116 64.0733 248.376 63.952 248.653 63.952C249.312 63.952 249.641 64.2813 249.641 64.94C249.641 65.252 249.537 65.512 249.329 65.72C244.58 70.9893 241.356 73.624 239.657 73.624C238.236 73.624 237.525 72.8613 237.525 71.336C237.525 70.192 238.184 68.1467 239.501 65.2C240.784 62.392 241.425 60.468 241.425 59.428C241.425 59.0467 241.234 58.856 240.853 58.856C239.536 58.856 237.958 59.8613 236.121 61.872C234.284 63.848 232.55 66.1013 230.921 68.632C229.916 71.44 229.136 73.052 228.581 73.468C228.304 73.6067 228.078 73.676 227.905 73.676ZM253.651 73.728C252.299 73.728 251.276 73.312 250.583 72.48C249.924 71.648 249.595 70.5387 249.595 69.152C249.595 67.8347 249.82 66.3267 250.271 64.628L249.335 65.72C249.127 65.928 248.884 66.032 248.607 66.032C247.948 66.032 247.619 65.6853 247.619 64.992C247.619 64.7147 247.705 64.4893 247.879 64.316C248.919 63.1373 250.253 61.5947 251.883 59.688C253.096 56.464 254.587 52.928 256.355 49.08C258.885 43.5333 260.983 40.448 262.647 39.824C263.028 39.6853 263.34 39.616 263.583 39.616C264.345 39.616 264.987 39.8933 265.507 40.448C266.027 41.0027 266.287 41.644 266.287 42.372C266.287 43.3773 265.957 44.4867 265.299 45.7C264.051 47.884 262.213 50.5013 259.787 53.552C257.36 56.6027 255.332 58.9773 253.703 60.676C252.316 64.4547 251.623 67.28 251.623 69.152C251.623 70.8507 252.316 71.7 253.703 71.7C255.332 71.7 256.944 70.4173 258.539 67.852C257.325 66.6733 256.719 64.9227 256.719 62.6C256.719 61.352 257.048 60.0867 257.707 58.804C258.365 57.4867 259.301 56.828 260.515 56.828C262.213 56.828 263.063 58.1453 263.063 60.78C263.063 62.7907 262.473 64.9053 261.295 67.124C261.641 67.1933 261.901 67.228 262.075 67.228C263.184 67.228 264.623 66.2573 266.391 64.316C266.633 64.0733 266.893 63.952 267.171 63.952C267.829 63.952 268.159 64.2813 268.159 64.94C268.159 65.252 268.055 65.512 267.847 65.72C265.697 68.0773 263.773 69.256 262.075 69.256C261.451 69.256 260.861 69.152 260.307 68.944C258.261 72.1333 256.043 73.728 253.651 73.728ZM263.635 41.592C263.323 41.592 262.889 41.9213 262.335 42.58C260.497 44.764 258.348 48.9413 255.887 55.112C261.468 48.6987 264.259 44.452 264.259 42.372C264.259 41.852 264.051 41.592 263.635 41.592ZM260.515 58.856C259.96 58.856 259.527 59.3067 259.215 60.208C258.903 61.0747 258.747 61.8893 258.747 62.652C258.747 64.1427 259.041 65.2693 259.631 66.032C260.567 63.9867 261.035 62.2533 261.035 60.832C261.035 59.5147 260.861 58.856 260.515 58.856ZM268.909 73.78C268.181 73.78 267.626 73.52 267.245 73C266.898 72.5147 266.725 71.9253 266.725 71.232C266.725 69.88 267.331 67.8173 268.545 65.044L267.869 65.72C267.661 65.928 267.435 66.032 267.193 66.032C266.915 66.032 266.69 65.928 266.517 65.72C266.309 65.4773 266.205 65.2347 266.205 64.992C266.205 64.7147 266.326 64.4373 266.569 64.16L272.445 57.296C272.722 57.0187 272.982 56.88 273.225 56.88C273.883 56.88 274.213 57.1573 274.213 57.712C274.213 58.0587 274.178 58.3013 274.109 58.44C273.069 60.1733 271.977 62.288 270.833 64.784C269.446 68.008 268.753 70.1053 268.753 71.076C268.753 71.5267 268.822 71.752 268.961 71.752C269.342 71.752 269.793 71.5267 270.313 71.076C271.907 69.62 274.109 67.3667 276.917 64.316C277.125 64.108 277.385 64.004 277.697 64.004C278.009 64.004 278.251 64.108 278.425 64.316C278.598 64.524 278.685 64.7493 278.685 64.992C278.685 65.2 278.563 65.46 278.321 65.772C276.067 68.268 273.849 70.5213 271.665 72.532C270.763 73.364 269.845 73.78 268.909 73.78ZM278.061 51.836C278.061 52.5293 277.87 53.032 277.489 53.344C277.142 53.6213 276.743 53.76 276.293 53.76C275.391 53.76 274.941 53.24 274.941 52.2C274.941 51.68 275.097 51.2467 275.409 50.9C275.755 50.5187 276.171 50.328 276.657 50.328C277.107 50.328 277.454 50.484 277.697 50.796C277.939 51.0733 278.061 51.42 278.061 51.836ZM291.538 71.908C290.151 73.1213 288.972 73.728 288.002 73.728C287.031 73.728 286.286 73.3987 285.766 72.74C285.246 72.0813 284.986 71.284 284.986 70.348C283.01 72.6013 281.051 73.728 279.11 73.728C277.896 73.728 276.978 73.3293 276.354 72.532C275.695 71.7347 275.366 70.712 275.366 69.464C275.366 66.4827 276.787 63.588 279.63 60.78C282.472 57.9373 285.454 56.516 288.574 56.516C289.822 56.516 290.827 56.7067 291.59 57.088C292.04 57.3653 292.266 57.6253 292.266 57.868C292.266 57.9027 292.214 58.076 292.11 58.388C291.104 60.8493 289.752 63.4493 288.054 66.188C287.36 67.9907 287.014 69.3773 287.014 70.348C287.014 71.2493 287.343 71.7 288.002 71.7C289.042 71.7 291.746 69.2387 296.114 64.316C296.356 64.0733 296.616 63.952 296.894 63.952C297.171 63.952 297.396 64.0733 297.57 64.316C297.778 64.524 297.882 64.7493 297.882 64.992C297.882 65.2693 297.778 65.512 297.57 65.72C294.935 68.5973 292.924 70.66 291.538 71.908ZM288.522 58.544C285.852 58.544 283.322 59.792 280.93 62.288C278.572 64.7493 277.394 67.1587 277.394 69.516C277.394 70.14 277.532 70.66 277.81 71.076C278.122 71.492 278.538 71.7 279.058 71.7C280.271 71.7 281.536 71.0413 282.854 69.724C284.171 68.372 285.298 66.8987 286.234 65.304V65.356C286.927 63.588 288.054 61.352 289.614 58.648C289.198 58.5787 288.834 58.544 288.522 58.544ZM308.184 60.52L308.86 58.96H308.808C308.426 58.96 308.166 58.9427 308.028 58.908C307.993 58.908 307.941 58.8907 307.872 58.856H307.716C306.468 58.856 305.029 59.272 303.4 60.104C301.77 60.9013 300.158 62.3573 298.564 64.472C297.177 66.3093 296.484 67.9733 296.484 69.464C296.484 70.088 296.64 70.608 296.952 71.024C297.264 71.44 297.68 71.648 298.2 71.648C299.309 71.648 300.436 71.1627 301.58 70.192C302.724 69.2213 303.712 68.1293 304.544 66.916C305.792 65.148 307.005 63.016 308.184 60.52ZM298.2 73.676C297.021 73.676 296.102 73.2773 295.444 72.48C294.785 71.648 294.456 70.66 294.456 69.516C294.456 67.54 295.27 65.4427 296.9 63.224C300.054 58.96 303.66 56.828 307.716 56.828C308.721 56.828 309.38 56.9667 309.692 57.244C311.009 54.332 312.344 51.264 313.696 48.04C313.834 47.6933 314.008 47.2253 314.216 46.636C314.458 46.012 314.666 45.5093 314.84 45.128C315.013 44.712 315.169 44.3827 315.308 44.14C315.55 43.724 315.862 43.516 316.244 43.516C316.521 43.516 316.746 43.62 316.92 43.828C317.128 44.036 317.232 44.2613 317.232 44.504C317.232 44.5733 317.18 44.764 317.076 45.076C316.729 46.0813 316.174 47.416 315.412 49.08L314.736 50.744C313.002 54.904 311.494 58.3013 310.212 60.936C308.097 65.4427 307.04 68.632 307.04 70.504C307.04 71.232 307.126 71.596 307.3 71.596C307.612 71.596 308.045 71.388 308.6 70.972C309.189 70.556 309.934 69.8973 310.836 68.996C311.737 68.06 312.43 67.332 312.916 66.812C313.436 66.2573 314.198 65.4253 315.204 64.316C315.446 64.0733 315.706 63.952 315.984 63.952C316.642 63.952 316.972 64.2813 316.972 64.94C316.972 65.252 316.868 65.512 316.66 65.72C315.273 67.2453 314.233 68.372 313.54 69.1C312.846 69.7933 312.049 70.5733 311.148 71.44C310.246 72.272 309.501 72.844 308.912 73.156C308.357 73.468 307.837 73.624 307.352 73.624C306.589 73.624 306.017 73.312 305.636 72.688C305.254 72.0293 305.064 71.3187 305.064 70.556C305.064 70.0707 305.081 69.724 305.116 69.516C302.689 72.2893 300.384 73.676 298.2 73.676ZM329.776 71.908C328.389 73.1213 327.211 73.728 326.24 73.728C325.269 73.728 324.524 73.3987 324.004 72.74C323.484 72.0813 323.224 71.284 323.224 70.348C321.248 72.6013 319.289 73.728 317.348 73.728C316.135 73.728 315.216 73.3293 314.592 72.532C313.933 71.7347 313.604 70.712 313.604 69.464C313.604 66.4827 315.025 63.588 317.868 60.78C320.711 57.9373 323.692 56.516 326.812 56.516C328.06 56.516 329.065 56.7067 329.828 57.088C330.279 57.3653 330.504 57.6253 330.504 57.868C330.504 57.9027 330.452 58.076 330.348 58.388C329.343 60.8493 327.991 63.4493 326.292 66.188C325.599 67.9907 325.252 69.3773 325.252 70.348C325.252 71.2493 325.581 71.7 326.24 71.7C327.28 71.7 329.984 69.2387 334.352 64.316C334.595 64.0733 334.855 63.952 335.132 63.952C335.409 63.952 335.635 64.0733 335.808 64.316C336.016 64.524 336.12 64.7493 336.12 64.992C336.12 65.2693 336.016 65.512 335.808 65.72C333.173 68.5973 331.163 70.66 329.776 71.908ZM326.76 58.544C324.091 58.544 321.56 59.792 319.168 62.288C316.811 64.7493 315.632 67.1587 315.632 69.516C315.632 70.14 315.771 70.66 316.048 71.076C316.36 71.492 316.776 71.7 317.296 71.7C318.509 71.7 319.775 71.0413 321.092 69.724C322.409 68.372 323.536 66.8987 324.472 65.304V65.356C325.165 63.588 326.292 61.352 327.852 58.648C327.436 58.5787 327.072 58.544 326.76 58.544Z" fill="#FC68B9"/>
</svg>
