<svg width="40" height="40" viewBox="0 0 40 40" fill="none" xmlns="http://www.w3.org/2000/svg">
<path d="M0 11C0 4.92487 4.92487 0 11 0H29C35.0751 0 40 4.92487 40 11V29C40 35.0751 35.0751 40 29 40H11C4.92487 40 0 35.0751 0 29V11Z" fill="#68E1E0"/>
<path d="M20.53 28.4201H14.21C11.05 28.4201 10 26.3201 10 24.2101V15.7901C10 12.6301 11.05 11.5801 14.21 11.5801H20.53C23.69 11.5801 24.74 12.6301 24.74 15.7901V24.2101C24.74 27.3701 23.68 28.4201 20.53 28.4201Z" stroke="white" stroke-width="1.5" stroke-linecap="round" stroke-linejoin="round"/>
<path d="M27.5202 25.1001L24.7402 23.1501V16.8401L27.5202 14.8901C28.8802 13.9401 30.0002 14.5201 30.0002 16.1901V23.8101C30.0002 25.4801 28.8802 26.0601 27.5202 25.1001Z" stroke="white" stroke-width="1.5" stroke-linecap="round" stroke-linejoin="round"/>
<path d="M19.5 19C20.3284 19 21 18.3284 21 17.5C21 16.6716 20.3284 16 19.5 16C18.6716 16 18 16.6716 18 17.5C18 18.3284 18.6716 19 19.5 19Z" stroke="white" stroke-width="1.5" stroke-linecap="round" stroke-linejoin="round"/>
</svg>
