<svg width="40" height="40" viewBox="0 0 40 40" fill="none" xmlns="http://www.w3.org/2000/svg">
<rect width="40" height="40" rx="11" fill="#FC68B9"/>
<path d="M29.3 18.835C29.69 18.835 30 18.525 30 18.135V17.205C30 13.105 28.75 11.855 24.65 11.855H15.35C11.25 11.855 10 13.105 10 17.205V17.675C10 18.065 10.31 18.375 10.7 18.375C11.6 18.375 12.33 19.105 12.33 20.005C12.33 20.905 11.6 21.625 10.7 21.625C10.31 21.625 10 21.935 10 22.325V22.795C10 26.895 11.25 28.145 15.35 28.145H24.65C28.75 28.145 30 26.895 30 22.795C30 22.405 29.69 22.095 29.3 22.095C28.4 22.095 27.67 21.365 27.67 20.465C27.67 19.565 28.4 18.835 29.3 18.835ZM17 16.875C17.55 16.875 18 17.325 18 17.875C18 18.425 17.56 18.875 17 18.875C16.45 18.875 16 18.425 16 17.875C16 17.325 16.44 16.875 17 16.875ZM23 23.875C22.44 23.875 21.99 23.425 21.99 22.875C21.99 22.325 22.44 21.875 22.99 21.875C23.54 21.875 23.99 22.325 23.99 22.875C23.99 23.425 23.56 23.875 23 23.875ZM23.9 17.475L17.17 24.205C17.02 24.355 16.83 24.425 16.64 24.425C16.45 24.425 16.26 24.355 16.11 24.205C15.82 23.915 15.82 23.435 16.11 23.145L22.84 16.415C23.13 16.125 23.61 16.125 23.9 16.415C24.19 16.705 24.19 17.185 23.9 17.475Z" fill="white"/>
</svg>
