<svg width="40" height="40" viewBox="0 0 40 40" fill="none" xmlns="http://www.w3.org/2000/svg">
<path d="M0 11C0 4.92487 4.92487 0 11 0H29C35.0751 0 40 4.92487 40 11V29C40 35.0751 35.0751 40 29 40H11C4.92487 40 0 35.0751 0 29V11Z" fill="#68E1E0"/>
<path d="M27.5 20.5C27.5 19.12 28.62 18 30 18V17C30 13 29 12 25 12H15C11 12 10 13 10 17V17.5C11.38 17.5 12.5 18.62 12.5 20C12.5 21.38 11.38 22.5 10 22.5V23C10 27 11 28 15 28H25C29 28 30 27 30 23C28.62 23 27.5 21.88 27.5 20.5Z" stroke="white" stroke-width="1.5" stroke-linecap="round" stroke-linejoin="round"/>
<path d="M17 22.75L23 16.75" stroke="white" stroke-width="1.5" stroke-linecap="round" stroke-linejoin="round"/>
<path d="M22.9945 22.75H23.0035" stroke="white" stroke-width="2" stroke-linecap="round" stroke-linejoin="round"/>
<path d="M16.9945 17.25H17.0035" stroke="white" stroke-width="2" stroke-linecap="round" stroke-linejoin="round"/>
</svg>
