<svg width="40" height="40" viewBox="0 0 40 40" fill="none" xmlns="http://www.w3.org/2000/svg">
<rect width="40" height="40" rx="11" fill="#FC68B9"/>
<path fill-rule="evenodd" clip-rule="evenodd" d="M26.75 9.625H20.25C18.76 9.625 17.64 10.385 17.2 11.625C17.07 12.005 17 12.425 17 12.875V16.775C17 17.745 17.32 18.565 17.89 19.135C18.46 19.705 19.28 20.025 20.25 20.025V21.415C20.25 21.925 20.83 22.235 21.26 21.955L24.15 20.025H26.75C27.2 20.025 27.62 19.955 28 19.825C29.24 19.385 30 18.265 30 16.775V12.875C30 10.925 28.7 9.625 26.75 9.625ZM19.87 14.875C19.87 15.285 20.2 15.625 20.62 15.625C21.04 15.625 21.37 15.285 21.37 14.875C21.37 14.465 21.04 14.125 20.62 14.125C20.2 14.125 19.87 14.465 19.87 14.875ZM22.69 14.875C22.69 15.285 23.02 15.625 23.44 15.625C23.85 15.625 24.19 15.285 24.19 14.875C24.19 14.465 23.85 14.125 23.44 14.125C23.03 14.125 22.69 14.465 22.69 14.875ZM25.5 14.875C25.5 15.285 25.83 15.625 26.25 15.625C26.66 15.625 27 15.285 27 14.875C27 14.465 26.66 14.125 26.25 14.125C25.84 14.125 25.5 14.465 25.5 14.875Z" fill="white"/>
<path d="M26.75 21.525H24.9038C24.7057 21.525 24.5121 21.5838 24.3476 21.694L22.09 23.205C21.73 23.445 21.31 23.555 20.9 23.555C20.55 23.555 20.2 23.475 19.88 23.295C19.3982 23.0403 19.0443 22.5725 18.8705 22.048C18.7313 21.6279 18.4537 21.2386 18.0537 21.0494C17.5944 20.8323 17.1804 20.5454 16.83 20.195C15.97 19.335 15.5 18.125 15.5 16.775V12.875V12.625C15.5 12.0727 15.0523 11.625 14.5 11.625C11.8 11.625 10 12.975 10 16.125V21.525C10 24.675 11.8 26.025 14.5 26.025H18.25V28.875H15.4C14.99 28.875 14.65 29.215 14.65 29.625C14.65 30.035 14.99 30.375 15.4 30.375H22.6C23.01 30.375 23.35 30.035 23.35 29.625C23.35 29.215 23.01 28.875 22.6 28.875H19.75V26.025H23.5C25.8954 26.025 27.5824 24.9624 27.9326 22.523C28.011 21.9763 27.5523 21.525 27 21.525H26.75Z" fill="white"/>
</svg>
