<svg width="40" height="40" viewBox="0 0 40 40" fill="none" xmlns="http://www.w3.org/2000/svg">
<path d="M0 11C0 4.92487 4.92487 0 11 0H29C35.0751 0 40 4.92487 40 11V29C40 35.0751 35.0751 40 29 40H11C4.92487 40 0 35.0751 0 29V11Z" fill="#FC68B9"/>
<path d="M28.0402 14.8187L22.2802 10.7887C20.7102 9.68872 18.3002 9.74872 16.7902 10.9187L11.7802 14.8287C10.7802 15.6087 9.99023 17.2087 9.99023 18.4687V25.3687C9.99023 27.9187 12.0602 29.9987 14.6102 29.9987H25.3902C27.9402 29.9987 30.0102 27.9287 30.0102 25.3787V18.5987C30.0102 17.2487 29.1402 15.5887 28.0402 14.8187ZM20.7502 25.9987C20.7502 26.4087 20.4102 26.7487 20.0002 26.7487C19.5902 26.7487 19.2502 26.4087 19.2502 25.9987V22.9987C19.2502 22.5887 19.5902 22.2487 20.0002 22.2487C20.4102 22.2487 20.7502 22.5887 20.7502 22.9987V25.9987Z" fill="white"/>
</svg>
