<svg width="56" height="55" viewBox="0 0 56 55" fill="none" xmlns="http://www.w3.org/2000/svg">
<rect x="0.5" width="55" height="55" rx="15" fill="white"/>
<path d="M24.7905 32.4662V31.8243C24.7905 30.9234 24.8806 30.1239 25.0608 29.4257C25.2635 28.705 25.5676 28.0968 25.973 27.6014C26.3784 27.0833 26.7275 26.7004 27.0203 26.4527C27.3131 26.1824 27.7297 25.8559 28.2703 25.473C28.7432 25.1351 29.0923 24.8649 29.3176 24.6622C29.5653 24.4595 29.7905 24.1779 29.9932 23.8176C30.2185 23.4347 30.3311 23.0293 30.3311 22.6013C30.3311 21.9032 30.1058 21.3401 29.6554 20.9122C29.2049 20.4842 28.6419 20.2703 27.9662 20.2703C27.6509 20.2703 27.3356 20.3266 27.0203 20.4392C26.7275 20.5518 26.4685 20.7095 26.2432 20.9122C26.018 21.1149 25.8266 21.3739 25.6689 21.6892C25.5338 22.0045 25.4662 22.3536 25.4662 22.7365H19.5878C19.5878 20.3041 20.3874 18.4122 21.9865 17.0608C23.5856 15.6869 25.5901 15 28 15C30.4324 15 32.4369 15.6982 34.0135 17.0946C35.6126 18.4685 36.4122 20.2928 36.4122 22.5676C36.4122 23.3108 36.3221 23.9865 36.1419 24.5946C35.9617 25.2027 35.6689 25.7545 35.2635 26.25C34.8806 26.723 34.5428 27.0946 34.25 27.3649C33.9797 27.6126 33.5743 27.9504 33.0338 28.3784C32.6284 28.6937 32.3243 28.9414 32.1216 29.1216C31.9189 29.3018 31.6824 29.5495 31.4122 29.8649C31.1419 30.1577 30.9504 30.4617 30.8378 30.777C30.7252 31.0923 30.6689 31.4414 30.6689 31.8243V32.4662H24.7905ZM24.6554 40V34.1554H30.7365V40H24.6554Z" fill="#FC68B9"/>
</svg>
