<svg width="40" height="40" viewBox="0 0 40 40" fill="none" xmlns="http://www.w3.org/2000/svg">
<path d="M0 11C0 4.92487 4.92487 0 11 0H29C35.0751 0 40 4.92487 40 11V29C40 35.0751 35.0751 40 29 40H11C4.92487 40 0 35.0751 0 29V11Z" fill="#68E1E0"/>
<path d="M22.6191 18.5795H17.3708M19.9942 16.0184V21.2667M25.0542 9.5H14.9355C12.6997 9.5 10.8838 11.3264 10.8838 13.5517V28.3414C10.8838 30.2308 12.2379 31.0286 13.8963 30.1153L19.0187 27.2708C19.5645 26.9664 20.4462 26.9664 20.9815 27.2708L26.1039 30.1153C27.7623 31.039 29.1164 30.2413 29.1164 28.3414V13.5517C29.1059 11.3264 27.29 9.5 25.0542 9.5Z" stroke="white" stroke-width="1.68" stroke-linecap="round" stroke-linejoin="round"/>
</svg>
