<svg width="40" height="40" viewBox="0 0 40 40" fill="none" xmlns="http://www.w3.org/2000/svg">
<rect width="40" height="40" rx="11" fill="#FC68B9"/>
<path d="M24.1949 10H15.8149C12.1749 10 10.0049 12.17 10.0049 15.81V24.18C10.0049 27.83 12.1749 30 15.8149 30H24.1849C27.8249 30 29.9949 27.83 29.9949 24.19V15.81C30.0049 12.17 27.8349 10 24.1949 10ZM16.4749 18.98C16.7649 18.69 17.2449 18.69 17.5349 18.98L19.2549 20.7V14.51C19.2549 14.1 19.5949 13.76 20.0049 13.76C20.4149 13.76 20.7549 14.1 20.7549 14.51V20.7L22.4749 18.98C22.7649 18.69 23.2449 18.69 23.5349 18.98C23.8249 19.27 23.8249 19.75 23.5349 20.04L20.5349 23.04C20.4649 23.11 20.3849 23.16 20.2949 23.2C20.2049 23.24 20.1049 23.26 20.0049 23.26C19.9049 23.26 19.8149 23.24 19.7149 23.2C19.6249 23.16 19.5449 23.11 19.4749 23.04L16.4749 20.04C16.1849 19.75 16.1849 19.28 16.4749 18.98ZM26.2449 25.22C24.2349 25.89 22.1249 26.23 20.0049 26.23C17.8849 26.23 15.7749 25.89 13.7649 25.22C13.3749 25.09 13.1649 24.66 13.2949 24.27C13.4249 23.88 13.8449 23.66 14.2449 23.8C17.9649 25.04 22.0549 25.04 25.7749 23.8C26.1649 23.67 26.5949 23.88 26.7249 24.27C26.8449 24.67 26.6349 25.09 26.2449 25.22Z" fill="white"/>
</svg>
