<svg width="120" height="61" viewBox="0 0 120 61" fill="none" xmlns="http://www.w3.org/2000/svg">
<path d="M52.6844 4.21181C57.1333 2.34826 62.144 2.34826 66.593 4.21181L74.7019 7.60845C76.6855 8.43931 78.8019 8.90799 80.9507 8.99228L93.9121 9.50067C98.2443 9.6706 101.857 12.8685 102.552 17.148L102.634 17.6494C103.021 20.0358 104.461 22.1215 106.555 23.3294C111.923 26.4254 111.923 34.1723 106.555 37.2682C104.461 38.4762 103.021 40.5618 102.634 42.9483L102.552 43.4496C101.857 47.7291 98.2443 50.9271 93.9121 51.097L80.9507 51.6054C78.8019 51.6897 76.6855 52.1583 74.7019 52.9892L66.593 56.3858C62.144 58.2494 57.1333 58.2494 52.6844 56.3858L44.5754 52.9892C42.5919 52.1583 40.4755 51.6897 38.3266 51.6054L25.3653 51.097C21.033 50.9271 17.42 47.7291 16.7252 43.4496L16.6438 42.9483C16.2564 40.5618 14.8163 38.4762 12.722 37.2682C7.35432 34.1723 7.35431 26.4254 12.722 23.3294C14.8163 22.1215 16.2564 20.0358 16.6438 17.6494L16.7252 17.148C17.42 12.8685 21.033 9.6706 25.3653 9.50067L38.3266 8.99228C40.4755 8.90799 42.5919 8.43931 44.5754 7.60845L52.6844 4.21181Z" fill="#FFEE97"/>
<path d="M42.8757 15.7969V26.2969H39.9057V18.0919H37.9557V15.7969H42.8757ZM58.8401 26.2969L58.8101 20.7319L56.1101 25.2619H54.7901L52.1051 20.8819V26.2969H49.3601V15.7969H51.8051L55.4951 21.8569L59.0951 15.7969H61.5401L61.5701 26.2969H58.8401ZM72.1016 24.0019V26.2969H63.6716V15.7969H71.9066V18.0919H66.6116V19.8619H71.2766V22.0819H66.6116V24.0019H72.1016ZM77.4397 26.5069C76.5897 26.5069 75.7647 26.4019 74.9647 26.1919C74.1647 25.9819 73.5147 25.7019 73.0147 25.3519L73.9897 23.1619C74.4597 23.4719 75.0047 23.7219 75.6247 23.9119C76.2447 24.1019 76.8547 24.1969 77.4547 24.1969C78.5947 24.1969 79.1647 23.9119 79.1647 23.3419C79.1647 23.0419 78.9997 22.8219 78.6697 22.6819C78.3497 22.5319 77.8297 22.3769 77.1097 22.2169C76.3197 22.0469 75.6597 21.8669 75.1297 21.6769C74.5997 21.4769 74.1447 21.1619 73.7647 20.7319C73.3847 20.3019 73.1947 19.7219 73.1947 18.9919C73.1947 18.3519 73.3697 17.7769 73.7197 17.2669C74.0697 16.7469 74.5897 16.3369 75.2797 16.0369C75.9797 15.7369 76.8347 15.5869 77.8447 15.5869C78.5347 15.5869 79.2147 15.6669 79.8847 15.8269C80.5547 15.9769 81.1447 16.2019 81.6547 16.5019L80.7397 18.7069C79.7397 18.1669 78.7697 17.8969 77.8297 17.8969C77.2397 17.8969 76.8097 17.9869 76.5397 18.1669C76.2697 18.3369 76.1347 18.5619 76.1347 18.8419C76.1347 19.1219 76.2947 19.3319 76.6147 19.4719C76.9347 19.6119 77.4497 19.7569 78.1597 19.9069C78.9597 20.0769 79.6197 20.2619 80.1397 20.4619C80.6697 20.6519 81.1247 20.9619 81.5047 21.3919C81.8947 21.8119 82.0897 22.3869 82.0897 23.1169C82.0897 23.7469 81.9147 24.3169 81.5647 24.8269C81.2147 25.3369 80.6897 25.7469 79.9897 26.0569C79.2897 26.3569 78.4397 26.5069 77.4397 26.5069ZM39.1099 38.8219H41.7349V43.1719C41.1349 43.6019 40.4449 43.9319 39.6649 44.1619C38.8849 44.3919 38.1049 44.5069 37.3249 44.5069C36.2249 44.5069 35.2349 44.2769 34.3549 43.8169C33.4749 43.3469 32.7849 42.6969 32.2849 41.8669C31.7849 41.0369 31.5349 40.0969 31.5349 39.0469C31.5349 37.9969 31.7849 37.0569 32.2849 36.2269C32.7849 35.3969 33.4799 34.7519 34.3699 34.2919C35.2599 33.8219 36.2649 33.5869 37.3849 33.5869C38.3649 33.5869 39.2449 33.7519 40.0249 34.0819C40.8049 34.4119 41.4549 34.8869 41.9749 35.5069L40.0849 37.2169C39.3749 36.4369 38.5249 36.0469 37.5349 36.0469C36.6349 36.0469 35.9099 36.3219 35.3599 36.8719C34.8099 37.4119 34.5349 38.1369 34.5349 39.0469C34.5349 39.6269 34.6599 40.1469 34.9099 40.6069C35.1599 41.0569 35.5099 41.4119 35.9599 41.6719C36.4099 41.9219 36.9249 42.0469 37.5049 42.0469C38.0749 42.0469 38.6099 41.9319 39.1099 41.7019V38.8219ZM48.2079 41.5069H46.5879V44.2969H43.6179V33.7969H48.4179C49.3679 33.7969 50.1929 33.9569 50.8929 34.2769C51.5929 34.5869 52.1329 35.0369 52.5129 35.6269C52.8929 36.2069 53.0829 36.8919 53.0829 37.6819C53.0829 38.4419 52.9029 39.1069 52.5429 39.6769C52.1929 40.2369 51.6879 40.6769 51.0279 40.9969L53.2929 44.2969H50.1129L48.2079 41.5069ZM50.0829 37.6819C50.0829 37.1919 49.9279 36.8119 49.6179 36.5419C49.3079 36.2719 48.8479 36.1369 48.2379 36.1369H46.5879V39.2119H48.2379C48.8479 39.2119 49.3079 39.0819 49.6179 38.8219C49.9279 38.5519 50.0829 38.1719 50.0829 37.6819ZM61.7564 42.2569H57.3164L56.4914 44.2969H53.4614L58.0964 33.7969H61.0214L65.6714 44.2969H62.5814L61.7564 42.2569ZM60.8864 40.0669L59.5364 36.7069L58.1864 40.0669H60.8864ZM68.221 36.1519H64.996V33.7969H74.401V36.1519H71.191V44.2969H68.221V36.1519ZM75.5075 33.7969H78.4775V44.2969H75.5075V33.7969ZM84.2805 44.5069C83.4305 44.5069 82.6055 44.4019 81.8055 44.1919C81.0055 43.9819 80.3555 43.7019 79.8555 43.3519L80.8305 41.1619C81.3005 41.4719 81.8455 41.7219 82.4655 41.9119C83.0855 42.1019 83.6955 42.1969 84.2955 42.1969C85.4355 42.1969 86.0055 41.9119 86.0055 41.3419C86.0055 41.0419 85.8405 40.8219 85.5105 40.6819C85.1905 40.5319 84.6705 40.3769 83.9505 40.2169C83.1605 40.0469 82.5005 39.8669 81.9705 39.6769C81.4405 39.4769 80.9855 39.1619 80.6055 38.7319C80.2255 38.3019 80.0355 37.7219 80.0355 36.9919C80.0355 36.3519 80.2105 35.7769 80.5605 35.2669C80.9105 34.7469 81.4305 34.3369 82.1205 34.0369C82.8205 33.7369 83.6755 33.5869 84.6855 33.5869C85.3755 33.5869 86.0555 33.6669 86.7255 33.8269C87.3955 33.9769 87.9855 34.2019 88.4955 34.5019L87.5805 36.7069C86.5805 36.1669 85.6105 35.8969 84.6705 35.8969C84.0805 35.8969 83.6505 35.9869 83.3805 36.1669C83.1105 36.3369 82.9755 36.5619 82.9755 36.8419C82.9755 37.1219 83.1355 37.3319 83.4555 37.4719C83.7755 37.6119 84.2905 37.7569 85.0005 37.9069C85.8005 38.0769 86.4605 38.2619 86.9805 38.4619C87.5105 38.6519 87.9655 38.9619 88.3455 39.3919C88.7355 39.8119 88.9305 40.3869 88.9305 41.1169C88.9305 41.7469 88.7555 42.3169 88.4055 42.8269C88.0555 43.3369 87.5305 43.7469 86.8305 44.0569C86.1305 44.3569 85.2805 44.5069 84.2805 44.5069Z" fill="#FC68B9"/>
</svg>
